<?xml version="1.0" encoding="utf-8"?>
<svg xmlns="http://www.w3.org/2000/svg" viewBox="0 0 1000 1000" width="100%" height="100%">
  <rect width="1000" height="1000" fill="#FFFFFF" />
  <!-- Patio Central -->
  <rect x="350" y="300" width="350" height="400" fill="#F5F5F5" />
  <!-- PISO 1 LAYER -->
  <g id="piso_1" class="floor-layer">
    <rect x="220" y="200" width="100" height="100" fill="#FFFFFF" stroke="#000000" stroke-width="1.5" />
    <rect x="320" y="200" width="100" height="100" fill="#FFFFFF" stroke="#000000" stroke-width="1.5" />
    <rect x="480" y="200" width="100" height="100" fill="#FFFFFF" stroke="#000000" stroke-width="1.5" />
    <rect x="580" y="200" width="220" height="100" fill="#FFFFFF" stroke="#000000" stroke-width="1.5" />
    <rect x="700" y="300" width="100" height="110" fill="#FFFFFF" stroke="#000000" stroke-width="1.5" />
    <rect x="700" y="410" width="100" height="110" fill="#FFFFFF" stroke="#000000" stroke-width="1.5" />
    <rect x="700" y="520" width="100" height="110" fill="#FFFFFF" stroke="#000000" stroke-width="1.5" />
    <rect x="700" y="630" width="100" height="120" fill="#FFFFFF" stroke="#000000" stroke-width="1.5" />
    <rect x="100" y="300" width="100" height="110" fill="#FFFFFF" stroke="#000000" stroke-width="1.5" />
    <rect x="100" y="410" width="100" height="110" fill="#FFFFFF" stroke="#000000" stroke-width="1.5" />
    <rect x="100" y="520" width="100" height="110" fill="#FFFFFF" stroke="#000000" stroke-width="1.5" />
    <rect x="100" y="630" width="100" height="120" fill="#FFFFFF" stroke="#000000" stroke-width="1.5" />
    <rect x="280" y="750" width="520" height="170" fill="#FFFFFF" stroke="#000000" stroke-width="1.5" />
    <path d="M 100 750 L 100 840 L 180 840 L 180 920 L 100 920 L 100 950 L 280 950 L 280 750 Z" fill="#FFFFFF" stroke="#000000" stroke-width="1.5" />
    <rect x="270" y="270" width="460" height="460" fill="none" stroke="#000000" stroke-width="2" stroke-dasharray="4,4" />
    <!-- Fuente Mudéjar -->
    <rect x="470" y="470" width="60" height="60" fill="#000000" transform="rotate(0 500 500)" />
    <rect x="470" y="470" width="60" height="60" fill="#000000" transform="rotate(45 500 500)" />
    <circle cx="500" cy="500" r="22" fill="#FFFFFF" />
    <circle cx="500" cy="500" r="10" fill="#000000" />
    <!-- Stairs U-Shape -->
    <rect x="100" y="200" width="120" height="100" fill="#FFFFFF" stroke="#000000" stroke-width="1.5" />
    <line x1="160" y1="240" x2="220" y2="240" stroke="#000000" stroke-width="2" />
    <line x1="160" y1="250" x2="220" y2="250" stroke="#000000" stroke-width="2" />
    <line x1="160" y1="260" x2="220" y2="260" stroke="#000000" stroke-width="2" />
    <line x1="160" y1="270" x2="220" y2="270" stroke="#000000" stroke-width="2" />
    <line x1="160" y1="280" x2="220" y2="280" stroke="#000000" stroke-width="2" />
    <line x1="160" y1="290" x2="220" y2="290" stroke="#000000" stroke-width="2" />
    <line x1="160" y1="240" x2="160" y2="300" stroke="#000000" stroke-width="3" />
    <line x1="110" y1="240" x2="110" y2="300" stroke="#000000" stroke-width="2" />
    <line x1="120" y1="240" x2="120" y2="300" stroke="#000000" stroke-width="2" />
    <line x1="130" y1="240" x2="130" y2="300" stroke="#000000" stroke-width="2" />
    <line x1="140" y1="240" x2="140" y2="300" stroke="#000000" stroke-width="2" />
    <line x1="150" y1="240" x2="150" y2="300" stroke="#000000" stroke-width="2" />
    <line x1="160" y1="240" x2="160" y2="300" stroke="#000000" stroke-width="2" />
    <path d="M 190 295 L 190 220 L 130 220 L 130 250" fill="none" stroke="#000000" stroke-width="3" stroke-linecap="round" stroke-linejoin="round" />
    <path d="M 125 242 L 130 250 L 135 242" fill="none" stroke="#000000" stroke-width="3" stroke-linecap="round" />
    <!-- Outer & Main Walls P1 -->
    <path d="M 100 750 L 100 200 L 420 200" fill="none" stroke="#000000" stroke-width="8" stroke-linecap="round" />
    <path d="M 480 200 L 800 200 L 800 750" fill="none" stroke="#000000" stroke-width="8" stroke-linecap="round" />
    <path d="M 200 300 L 700 300 L 700 700 L 200 700 L 200 300" fill="none" stroke="#000000" stroke-width="8" />
    <line x1="220" y1="200" x2="220" y2="300" stroke="#000000" stroke-width="8" />
    <line x1="320" y1="200" x2="320" y2="300" stroke="#000000" stroke-width="8" />
    <line x1="420" y1="200" x2="420" y2="300" stroke="#000000" stroke-width="8" />
    <line x1="480" y1="200" x2="480" y2="300" stroke="#000000" stroke-width="8" />
    <line x1="580" y1="200" x2="580" y2="300" stroke="#000000" stroke-width="8" />
    <line x1="700" y1="410" x2="800" y2="410" stroke="#000000" stroke-width="8" />
    <line x1="700" y1="520" x2="800" y2="520" stroke="#000000" stroke-width="8" />
    <line x1="700" y1="630" x2="800" y2="630" stroke="#000000" stroke-width="8" />
    <line x1="100" y1="410" x2="200" y2="410" stroke="#000000" stroke-width="8" />
    <line x1="100" y1="520" x2="200" y2="520" stroke="#000000" stroke-width="8" />
    <line x1="100" y1="630" x2="200" y2="630" stroke="#000000" stroke-width="8" />
    <path d="M 280 750 L 280 920 L 800 920 L 800 750" fill="none" stroke="#000000" stroke-width="8" stroke-linecap="round" />
    <path d="M 100 750 L 100 840 L 180 840 L 180 920 L 100 920 L 100 950 L 280 950 L 280 920" fill="none" stroke="#000000" stroke-width="8" stroke-linecap="round" />
    <path d="M 200 750 L 200 800 L 280 800" fill="none" stroke="#000000" stroke-width="8" stroke-linecap="round" />
    <!-- Doors P1 -->
    <line x1="420" y1="300" x2="445" y2="300" stroke="#000000" stroke-width="3" />
    <path d="M 445 300 A 25 25 0 0 1 420 325" fill="none" stroke="#666666" stroke-width="1.5" stroke-dasharray="3,3" />
    <line x1="480" y1="300" x2="455" y2="300" stroke="#000000" stroke-width="3" />
    <path d="M 455 300 A 25 25 0 0 0 480 325" fill="none" stroke="#666666" stroke-width="1.5" stroke-dasharray="3,3" />
    <line x1="280" y1="300" x2="280" y2="270" stroke="#000000" stroke-width="3" />
    <path d="M 280 300 A 30 30 0 0 1 310 300" fill="none" stroke="#666666" stroke-width="1.5" stroke-dasharray="3,3" />
    <line x1="380" y1="300" x2="380" y2="270" stroke="#000000" stroke-width="3" />
    <path d="M 380 300 A 30 30 0 0 1 410 300" fill="none" stroke="#666666" stroke-width="1.5" stroke-dasharray="3,3" />
    <line x1="500" y1="300" x2="500" y2="270" stroke="#000000" stroke-width="3" />
    <path d="M 500 300 A 30 30 0 0 0 470 300" fill="none" stroke="#666666" stroke-width="1.5" stroke-dasharray="3,3" />
    <line x1="700" y1="320" x2="730" y2="320" stroke="#000000" stroke-width="3" />
    <path d="M 700 320 A 30 30 0 0 1 700 350" fill="none" stroke="#666666" stroke-width="1.5" stroke-dasharray="3,3" />
    <line x1="700" y1="430" x2="730" y2="430" stroke="#000000" stroke-width="3" />
    <path d="M 700 430 A 30 30 0 0 1 700 460" fill="none" stroke="#666666" stroke-width="1.5" stroke-dasharray="3,3" />
    <line x1="700" y1="540" x2="730" y2="540" stroke="#000000" stroke-width="3" />
    <path d="M 700 540 A 30 30 0 0 1 700 570" fill="none" stroke="#666666" stroke-width="1.5" stroke-dasharray="3,3" />
    <line x1="700" y1="650" x2="730" y2="650" stroke="#000000" stroke-width="3" />
    <path d="M 700 650 A 30 30 0 0 1 700 680" fill="none" stroke="#666666" stroke-width="1.5" stroke-dasharray="3,3" />
    <line x1="200" y1="320" x2="170" y2="320" stroke="#000000" stroke-width="3" />
    <path d="M 200 320 A 30 30 0 0 0 200 350" fill="none" stroke="#666666" stroke-width="1.5" stroke-dasharray="3,3" />
    <line x1="200" y1="430" x2="170" y2="430" stroke="#000000" stroke-width="3" />
    <path d="M 200 430 A 30 30 0 0 0 200 460" fill="none" stroke="#666666" stroke-width="1.5" stroke-dasharray="3,3" />
    <line x1="200" y1="540" x2="170" y2="540" stroke="#000000" stroke-width="3" />
    <path d="M 200 540 A 30 30 0 0 0 200 570" fill="none" stroke="#666666" stroke-width="1.5" stroke-dasharray="3,3" />
    <line x1="200" y1="650" x2="170" y2="650" stroke="#000000" stroke-width="3" />
    <path d="M 200 650 A 30 30 0 0 0 200 680" fill="none" stroke="#666666" stroke-width="1.5" stroke-dasharray="3,3" />
    <line x1="740" y1="750" x2="740" y2="780" stroke="#000000" stroke-width="3" />
    <path d="M 740 750 A 30 30 0 0 1 770 750" fill="none" stroke="#666666" stroke-width="1.5" stroke-dasharray="3,3" />
    <line x1="800" y1="750" x2="770" y2="750" stroke="#000000" stroke-width="3" />
    <path d="M 770 750 A 30 30 0 0 1 800 780" fill="none" stroke="#666666" stroke-width="1.5" stroke-dasharray="3,3" />
    <line x1="320" y1="750" x2="350" y2="750" stroke="#000000" stroke-width="3" />
    <path d="M 320 750 A 30 30 0 0 1 320 780" fill="none" stroke="#666666" stroke-width="1.5" stroke-dasharray="3,3" />
    <line x1="220" y1="250" x2="220" y2="280" stroke="#000000" stroke-width="3" />
    <path d="M 220 280 A 30 30 0 0 1 190 280" fill="none" stroke="#666666" stroke-width="1.5" stroke-dasharray="3,3" />
  </g>
  <!-- PISO 2 LAYER -->
  <g id="piso_2" class="floor-layer" style="display: none;">
    <rect x="220" y="200" width="100" height="100" fill="#FFFFFF" stroke="#000000" stroke-width="1.5" />
    <rect x="320" y="200" width="160" height="100" fill="#FFFFFF" stroke="#000000" stroke-width="1.5" />
    <rect x="480" y="200" width="100" height="100" fill="#FFFFFF" stroke="#000000" stroke-width="1.5" />
    <rect x="580" y="200" width="220" height="100" fill="#FFFFFF" stroke="#000000" stroke-width="1.5" />
    <rect x="700" y="300" width="100" height="110" fill="#FFFFFF" stroke="#000000" stroke-width="1.5" />
    <rect x="700" y="410" width="100" height="110" fill="#FFFFFF" stroke="#000000" stroke-width="1.5" />
    <rect x="700" y="520" width="100" height="110" fill="#FFFFFF" stroke="#000000" stroke-width="1.5" />
    <rect x="700" y="630" width="100" height="120" fill="#FFFFFF" stroke="#000000" stroke-width="1.5" />
    <rect x="100" y="300" width="100" height="110" fill="#FFFFFF" stroke="#000000" stroke-width="1.5" />
    <rect x="100" y="410" width="100" height="110" fill="#FFFFFF" stroke="#000000" stroke-width="1.5" />
    <rect x="100" y="520" width="100" height="110" fill="#FFFFFF" stroke="#000000" stroke-width="1.5" />
    <rect x="100" y="630" width="100" height="120" fill="#FFFFFF" stroke="#000000" stroke-width="1.5" />
    <rect x="20" y="450" width="80" height="80" fill="#FFFFFF" stroke="#000000" stroke-width="1.5" />
    <rect x="280" y="750" width="520" height="170" fill="#FFFFFF" stroke="#000000" stroke-width="1.5" />
    <rect x="100" y="750" width="180" height="200" fill="#FFFFFF" stroke="#000000" stroke-width="1.5" />
    <rect x="270" y="270" width="460" height="460" fill="none" stroke="#000000" stroke-width="2" stroke-dasharray="4,4" />
    <!-- Stairs U-Shape P2 -->
    <rect x="100" y="200" width="120" height="100" fill="#FFFFFF" stroke="#000000" stroke-width="1.5" />
    <line x1="160" y1="240" x2="220" y2="240" stroke="#000000" stroke-width="2" />
    <line x1="160" y1="250" x2="220" y2="250" stroke="#000000" stroke-width="2" />
    <line x1="160" y1="260" x2="220" y2="260" stroke="#000000" stroke-width="2" />
    <line x1="160" y1="270" x2="220" y2="270" stroke="#000000" stroke-width="2" />
    <line x1="160" y1="280" x2="220" y2="280" stroke="#000000" stroke-width="2" />
    <line x1="160" y1="290" x2="220" y2="290" stroke="#000000" stroke-width="2" />
    <line x1="160" y1="240" x2="160" y2="300" stroke="#000000" stroke-width="3" />
    <line x1="110" y1="240" x2="110" y2="300" stroke="#000000" stroke-width="2" />
    <line x1="120" y1="240" x2="120" y2="300" stroke="#000000" stroke-width="2" />
    <line x1="130" y1="240" x2="130" y2="300" stroke="#000000" stroke-width="2" />
    <line x1="140" y1="240" x2="140" y2="300" stroke="#000000" stroke-width="2" />
    <line x1="150" y1="240" x2="150" y2="300" stroke="#000000" stroke-width="2" />
    <line x1="160" y1="240" x2="160" y2="300" stroke="#000000" stroke-width="2" />
    <path d="M 190 295 L 190 220 L 130 220 L 130 250" fill="none" stroke="#000000" stroke-width="3" stroke-linecap="round" stroke-linejoin="round" />
    <path d="M 125 242 L 130 250 L 135 242" fill="none" stroke="#000000" stroke-width="3" stroke-linecap="round" />
    <!-- Outer & Main Walls P2 -->
    <path d="M 100 450 L 100 200 L 800 200 L 800 750" fill="none" stroke="#000000" stroke-width="8" stroke-linecap="round" />
    <path d="M 100 530 L 100 950 L 280 950 L 280 920" fill="none" stroke="#000000" stroke-width="8" stroke-linecap="round" />
    <path d="M 100 450 L 20 450 L 20 530 L 100 530" fill="none" stroke="#000000" stroke-width="8" stroke-linecap="round" />
    <path d="M 200 300 L 700 300 L 700 700 L 200 700 L 200 300" fill="none" stroke="#000000" stroke-width="8" />
    <line x1="220" y1="200" x2="220" y2="300" stroke="#000000" stroke-width="8" />
    <line x1="320" y1="200" x2="320" y2="300" stroke="#000000" stroke-width="8" />
    <line x1="480" y1="200" x2="480" y2="300" stroke="#000000" stroke-width="8" />
    <line x1="580" y1="200" x2="580" y2="300" stroke="#000000" stroke-width="8" />
    <line x1="700" y1="410" x2="800" y2="410" stroke="#000000" stroke-width="8" />
    <line x1="700" y1="520" x2="800" y2="520" stroke="#000000" stroke-width="8" />
    <line x1="700" y1="630" x2="800" y2="630" stroke="#000000" stroke-width="8" />
    <line x1="100" y1="410" x2="200" y2="410" stroke="#000000" stroke-width="8" />
    <line x1="100" y1="520" x2="200" y2="520" stroke="#000000" stroke-width="8" />
    <line x1="100" y1="630" x2="200" y2="630" stroke="#000000" stroke-width="8" />
    <path d="M 280 750 L 280 920 L 800 920 L 800 750" fill="none" stroke="#000000" stroke-width="8" stroke-linecap="round" />
    <line x1="280" y1="750" x2="280" y2="950" stroke="#000000" stroke-width="8" />
    <!-- Doors P2 -->
    <line x1="100" y1="470" x2="100" y2="495" stroke="#000000" stroke-width="3" />
    <path d="M 100 495 A 25 25 0 0 1 75 470" fill="none" stroke="#666666" stroke-width="1.5" stroke-dasharray="3,3" />
    <line x1="100" y1="530" x2="100" y2="505" stroke="#000000" stroke-width="3" />
    <path d="M 100 505 A 25 25 0 0 0 75 530" fill="none" stroke="#666666" stroke-width="1.5" stroke-dasharray="3,3" />
    <line x1="360" y1="300" x2="390" y2="300" stroke="#000000" stroke-width="3" />
    <path d="M 360 300 A 30 30 0 0 1 360 270" fill="none" stroke="#666666" stroke-width="1.5" stroke-dasharray="3,3" />
    <line x1="440" y1="300" x2="410" y2="300" stroke="#000000" stroke-width="3" />
    <path d="M 440 300 A 30 30 0 0 0 440 270" fill="none" stroke="#666666" stroke-width="1.5" stroke-dasharray="3,3" />
    <line x1="700" y1="320" x2="730" y2="320" stroke="#000000" stroke-width="3" />
    <path d="M 700 320 A 30 30 0 0 1 700 350" fill="none" stroke="#666666" stroke-width="1.5" stroke-dasharray="3,3" />
    <line x1="700" y1="430" x2="730" y2="430" stroke="#000000" stroke-width="3" />
    <path d="M 700 430 A 30 30 0 0 1 700 460" fill="none" stroke="#666666" stroke-width="1.5" stroke-dasharray="3,3" />
    <line x1="700" y1="540" x2="730" y2="540" stroke="#000000" stroke-width="3" />
    <path d="M 700 540 A 30 30 0 0 1 700 570" fill="none" stroke="#666666" stroke-width="1.5" stroke-dasharray="3,3" />
    <line x1="700" y1="650" x2="730" y2="650" stroke="#000000" stroke-width="3" />
    <path d="M 700 650 A 30 30 0 0 1 700 680" fill="none" stroke="#666666" stroke-width="1.5" stroke-dasharray="3,3" />
    <line x1="200" y1="320" x2="170" y2="320" stroke="#000000" stroke-width="3" />
    <path d="M 200 320 A 30 30 0 0 0 200 350" fill="none" stroke="#666666" stroke-width="1.5" stroke-dasharray="3,3" />
    <line x1="200" y1="430" x2="170" y2="430" stroke="#000000" stroke-width="3" />
    <path d="M 200 430 A 30 30 0 0 0 200 460" fill="none" stroke="#666666" stroke-width="1.5" stroke-dasharray="3,3" />
    <line x1="200" y1="540" x2="170" y2="540" stroke="#000000" stroke-width="3" />
    <path d="M 200 540 A 30 30 0 0 0 200 570" fill="none" stroke="#666666" stroke-width="1.5" stroke-dasharray="3,3" />
    <line x1="200" y1="650" x2="170" y2="650" stroke="#000000" stroke-width="3" />
    <path d="M 200 650 A 30 30 0 0 0 200 680" fill="none" stroke="#666666" stroke-width="1.5" stroke-dasharray="3,3" />
    <line x1="210" y1="750" x2="180" y2="750" stroke="#000000" stroke-width="3" />
    <path d="M 210 750 A 30 30 0 0 1 210 780" fill="none" stroke="#666666" stroke-width="1.5" stroke-dasharray="3,3" />
    <line x1="580" y1="750" x2="610" y2="750" stroke="#000000" stroke-width="3" />
    <path d="M 580 750 A 30 30 0 0 1 580 780" fill="none" stroke="#666666" stroke-width="1.5" stroke-dasharray="3,3" />
  </g>
</svg>